<svg width="90" height="91" viewBox="0 0 90 91" fill="none" xmlns="http://www.w3.org/2000/svg">
<g clip-path="url(#clip0_39_111)">
<path d="M55.6242 3.30005H55.6173C36.632 3.30005 21.2415 21.0154 21.2415 42.8685V42.8764C21.2415 64.7294 36.632 82.4448 55.6173 82.4448H55.6242C74.6094 82.4448 90 64.7294 90 42.8764V42.8685C90 21.0154 74.6094 3.30005 55.6242 3.30005Z" fill="#8FD8D8"/>
<path d="M18.6077 41.9765C18.6077 37.4291 21.2277 34.6265 24.1015 34.6265C27.62 34.6265 29.5199 37.887 29.5199 41.858C29.5199 45.4107 27.7229 49.1686 24.0672 49.1686C20.4115 49.1686 18.6145 45.8607 18.6145 41.9844L18.6077 41.9765ZM27.1468 41.8975C27.1468 39.1738 25.9602 37.437 24.0946 37.437C22.4828 37.437 21.0425 39.0475 21.0425 41.8975C21.0425 44.337 22.1536 46.2791 24.1289 46.2791C25.9259 46.2791 27.1468 44.6291 27.1468 41.8975ZM36.8724 34.7528H39.3827L26.7832 59.4949H24.273L36.8724 34.7528ZM39.7805 45.0396C43.299 45.0396 45.1989 48.0949 45.1989 52.2238C45.1989 55.737 43.4431 59.5344 39.7805 59.5344C36.118 59.5344 34.3278 56.1475 34.3278 52.3896C34.3278 47.8028 36.9136 45.0396 39.7805 45.0396ZM39.8491 56.6449C41.6049 56.6449 42.8669 54.9475 42.8669 52.2238C42.8669 49.5001 41.6804 47.8028 39.7805 47.8028C38.059 47.8028 36.6941 49.5001 36.6941 52.2633C36.6941 54.5765 37.8395 56.6449 39.8491 56.6449Z" fill="black"/>
<path d="M13.4705 23.7869H34.1426" stroke="black" stroke-width="2" stroke-miterlimit="10"/>
<path d="M43.2373 23.7869H50.7202" stroke="black" stroke-width="2" stroke-miterlimit="10"/>
<path d="M36.2825 23.8105H40.0273" stroke="black" stroke-width="2" stroke-miterlimit="10"/>
<path d="M50.7201 69.0237H30.048" stroke="black" stroke-width="2" stroke-miterlimit="10"/>
<path d="M20.9602 69.0237H13.4705" stroke="black" stroke-width="2" stroke-miterlimit="10"/>
<path d="M27.9081 69.0081H24.1632" stroke="black" stroke-width="2" stroke-miterlimit="10"/>
<path d="M49.8696 1.70532H14.9039C14.6844 7.12901 10.9122 11.4711 6.19336 11.7316V80.1079C10.9053 80.3606 14.6776 84.7027 14.9039 90.1343H49.8628C50.0822 84.7106 53.8545 80.3685 58.5733 80.1079V11.7316C53.8614 11.479 50.0891 7.1369 49.8628 1.70532H49.8696Z" stroke="black" stroke-width="2" stroke-miterlimit="10"/>
</g>
<defs>
<clipPath id="clip0_39_111">
<rect width="90" height="90" fill="white" transform="translate(0 0.915771)"/>
</clipPath>
</defs>
</svg>
